<svg xmlns="http://www.w3.org/2000/svg" viewBox="0 0 256 256">
  <rect width="256" height="256" rx="64" fill="#F6F3ED" />
  <path
    d="M64 152c0-39.765 31.784-72 71-72s57 29.35 57 58.213c0 27.55-18.568 49.787-45 49.787-20.435 0-35.53-11.155-44.623-25.328C92.902 180.48 86 192 72 192c-4.794 0-8-1.762-8-6 0-8.706 8.116-14.718 14.533-20.67C69.64 159.815 64 155.392 64 152Z"
    fill="#32453B"
  />
  <path
    d="M110 96c9.257-15.883 27.533-28 47-28 21.404 0 40.405 11.446 51 29-11.326-8.798-24.965-13-40-13-24.083 0-44.547 10.772-58 32-5.737-4.317-8.263-11.693 0-20Z"
    fill="#7A9272"
  />
  <circle cx="171" cy="118" r="10" fill="#C7A86D" />
</svg>
